<svg width="98" height="83" xmlns="http://www.w3.org/2000/svg">
  <g fill="#A29BFE" fill-rule="evenodd">
    <path d="M71.064 10.232c3.667-.222 5.974-.897 6.921-2.026a4 4 0 0 0-6.128-5.142c-.947 1.128-1.211 3.518-.793 7.168zM12.415 76.009c-2.865.173-4.667.7-5.406 1.582a3.125 3.125 0 1 0 4.787 4.017c.74-.882.946-2.748.62-5.6zM26.648 7.244c.337-2.941.124-4.866-.638-5.775a3.223 3.223 0 0 0-4.938 4.143c.762.91 2.621 1.453 5.576 1.632zM90.362 49.921c.938 2.808 1.944 4.463 3.02 4.964a3.223 3.223 0 1 0 2.724-5.842c-1.076-.501-2.99-.209-5.744.878zM59.231 70.973c-1.574 3.989-1.998 6.762-1.271 8.32a4.669 4.669 0 0 0 8.462-3.946c-.726-1.558-3.123-3.016-7.19-4.374zM10.328 29.532c-2.088-3.16-3.88-4.87-5.374-5.134a4.123 4.123 0 0 0-1.432 8.12c1.495.264 3.763-.732 6.806-2.986z"/>
  </g>
</svg>
